# xmcd CD database file
#
# Track frame offsets:
#	150
#	33577
#	65643
#	115737
#	142547
#	163628
#	216058
#	255300
#
# Disc length: 3931 seconds
#
# Revision: 0
# Processed by: cddbd v1.4PL0 Copyright (c) Steve Scherf et al.
# Submitted via: CDex 1.50Beta5
#
DISCID=650f5908
DTITLE=One For All - Upward and Onward
DYEAR=1999
DGENRE=Jazz
TTITLE0=D's Blues
TTITLE1=Perspective
TTITLE2=We All Love Eddie Harris
TTITLE3=Epitome
TTITLE4=Just By Myself
TTITLE5=John Coltrane
TTITLE6=Blues For Joe Don
TTITLE7=Upward and Onward
EXTD=YEAR: 1999
EXTT0=
EXTT1=
EXTT2=
EXTT3=
EXTT4=
EXTT5=
EXTT6=
EXTT7=
PLAYORDER=
